<svg xmlns="http://www.w3.org/2000/svg" viewBox="0 0 64 64" fill="none">
  <!-- Sun glow -->
  <circle cx="42" cy="20" r="12" fill="#3B82F6" opacity="0.25"/>
  <!-- Sun -->
  <circle cx="42" cy="20" r="8" fill="#60A5FA"/>
  <!-- Sun rays -->
  <line x1="42" y1="6" x2="42" y2="2" stroke="#60A5FA" stroke-width="2.5" stroke-linecap="round"/>
  <line x1="42" y1="38" x2="42" y2="34" stroke="#60A5FA" stroke-width="2.5" stroke-linecap="round"/>
  <line x1="28" y1="20" x2="24" y2="20" stroke="#60A5FA" stroke-width="2.5" stroke-linecap="round"/>
  <line x1="56" y1="20" x2="60" y2="20" stroke="#60A5FA" stroke-width="2.5" stroke-linecap="round"/>
  <line x1="32" y1="10" x2="29" y2="7" stroke="#60A5FA" stroke-width="2.5" stroke-linecap="round"/>
  <line x1="52" y1="30" x2="55" y2="33" stroke="#60A5FA" stroke-width="2.5" stroke-linecap="round"/>
  <line x1="52" y1="10" x2="55" y2="7" stroke="#60A5FA" stroke-width="2.5" stroke-linecap="round"/>
  <line x1="32" y1="30" x2="29" y2="33" stroke="#60A5FA" stroke-width="2.5" stroke-linecap="round"/>
  <!-- Cloud body -->
  <rect x="6" y="30" width="46" height="22" rx="11" fill="#1E3A5F"/>
  <circle cx="20" cy="30" r="11" fill="#1E3A5F"/>
  <circle cx="36" cy="25" r="14" fill="#1E3A5F"/>
  <!-- Cloud highlight -->
  <rect x="6" y="30" width="46" height="22" rx="11" fill="#2563EB" opacity="0.5"/>
  <circle cx="20" cy="30" r="11" fill="#2563EB" opacity="0.5"/>
  <circle cx="36" cy="25" r="14" fill="#2563EB" opacity="0.5"/>
</svg>
